<svg xmlns="http://www.w3.org/2000/svg" width="327.029" height="152"><g data-name="Graph 2"><path data-name="Path 5062" d="M1 129.788s45.27-.531 76.694-50.025 49.6 41.006 83.838 35.383 37.484-108.855 72.44-98.988 19.5 73.046 93.028 75.188" fill="none" stroke="#d8d8d8" stroke-width="2"/><path data-name="Path 5060" d="M1 91.513s25.192-63.63 73.241-22.976 104.732 44.1 159.315 0 87.371 41.343 87.371 41.343" fill="none" stroke="#5a80fb" stroke-width="2"/><path data-name="Path 5061" d="M220.19 67.185a9.821 9.821 0 1 1-9.821 9.821 9.821 9.821 0 0 1 9.821-9.821z" fill="#5a80fb" stroke="#fff" stroke-width="3"/><path data-name="Line 108" fill="none" stroke="#d8d8d8" stroke-width="2" d="M1 0v151"/><path data-name="Line 109" fill="none" stroke="#d8d8d8" stroke-width="2" d="M326.88 151H1"/><g data-name="Group 3314" transform="translate(186.264 33.784)"><rect data-name="Rectangle 52" width="72.836" height="25.339" rx="5" fill="#5a80fb"/><path data-name="Path 25" d="M23.209 19.772L34.257 30.82l11.052-11.048z" fill="#5a80fb"/><path data-name="Path 5192" d="M21.664 11.369h-.737l.165-1.781h3.311v-1.2h-4.521l-.4 4.191h1.863c1.6 0 2.068.462 2.068 1.2s-.6 1.177-1.628 1.177a3.646 3.646 0 0 1-2.266-.76l-.605 1.111a4.813 4.813 0 0 0 2.893.891c2.064 0 3.047-1.122 3.047-2.475s-.913-2.354-3.19-2.354zm6.607-3.091a2.567 2.567 0 0 0-2.816 2.5 2.406 2.406 0 0 0 2.655 2.362 2.629 2.629 0 0 0 2.057-.8v.011c0 1.749-.913 2.651-2.365 2.651a2.618 2.618 0 0 1-1.463-.374l-.528 1.075a3.86 3.86 0 0 0 2.024.495c2.233 0 3.773-1.452 3.773-4.092 0-2.475-1.237-3.828-3.337-3.828zm.11 3.74c-.935 0-1.54-.506-1.54-1.309A1.337 1.337 0 0 1 28.352 9.4c1.023 0 1.6.572 1.6 1.3a1.4 1.4 0 0 1-1.567 1.318zm6.79-3.74a2.567 2.567 0 0 0-2.816 2.5 2.406 2.406 0 0 0 2.651 2.365 2.629 2.629 0 0 0 2.057-.8v.011c0 1.749-.913 2.651-2.365 2.651a2.618 2.618 0 0 1-1.463-.374l-.527 1.072a3.86 3.86 0 0 0 2.024.495c2.233 0 3.773-1.452 3.773-4.092 0-2.475-1.234-3.828-3.334-3.828zm.11 3.74c-.935 0-1.54-.506-1.54-1.309A1.337 1.337 0 0 1 35.248 9.4c1.023 0 1.595.572 1.595 1.3a1.4 1.4 0 0 1-1.561 1.318zm4.928 2.321a.867.867 0 0 0-.891.913.846.846 0 0 0 .517.814l-.44 1.683h.891l.562-1.551a2.48 2.48 0 0 0 .253-.946.867.867 0 0 0-.891-.913zm6.919-2.3a1.757 1.757 0 0 0 .979-1.617c0-1.32-1.166-2.145-2.882-2.145s-2.86.825-2.86 2.145a1.757 1.757 0 0 0 .957 1.617 1.932 1.932 0 0 0-1.231 1.838c0 1.43 1.221 2.321 3.135 2.321s3.157-.891 3.157-2.321a1.937 1.937 0 0 0-1.254-1.837zm-1.9-2.64c.88 0 1.474.4 1.474 1.089 0 .66-.561 1.078-1.474 1.078s-1.457-.417-1.457-1.078c0-.692.575-1.088 1.455-1.088zm0 5.676c-1.056 0-1.694-.462-1.694-1.243 0-.759.638-1.232 1.694-1.232s1.716.473 1.716 1.232c-.002.782-.662 1.244-1.718 1.244zm9.073-3.035a1.757 1.757 0 0 0 .979-1.617c0-1.32-1.166-2.145-2.882-2.145s-2.86.825-2.86 2.145a1.757 1.757 0 0 0 .957 1.617 1.932 1.932 0 0 0-1.232 1.837c0 1.43 1.221 2.321 3.135 2.321s3.157-.891 3.157-2.321a1.937 1.937 0 0 0-1.254-1.837zm-1.9-2.64c.88 0 1.474.4 1.474 1.089 0 .66-.561 1.078-1.474 1.078s-1.455-.418-1.455-1.079c0-.692.572-1.088 1.452-1.088zm0 5.676c-1.056 0-1.694-.462-1.694-1.243 0-.759.638-1.232 1.694-1.232s1.716.473 1.716 1.232c-.003.781-.663 1.243-1.719 1.243z" fill="#fff"/></g></g></svg>