<svg xmlns="http://www.w3.org/2000/svg" width="328.971" height="171"><defs><linearGradient id="a" x1=".5" x2=".5" y2="1" gradientUnits="objectBoundingBox"><stop offset="0" stop-color="#b0c3ff"/><stop offset=".457" stop-color="#dfe7ff"/><stop offset="1" stop-color="#fff"/></linearGradient></defs><g data-name="Graph 1"><path data-name="Path 2611" d="M-.947 149.452l3.472-14.362 12.806-52.974c1.137-4.794 3.589-4.974 5.384-.36l10.827 27.627a34.031 34.031 0 0 0 10.707 13.424l.12.06a12.908 12.908 0 0 0 14.416-.6l4.546-3.716a42.791 42.791 0 0 0 10.528-13.9l13.817-32.064a50.324 50.324 0 0 1 10.169-14.322l7.716-7.071c3.649-3.356 8.614-2.577 11.066 1.738l9.631 16.78c2.453 4.315 5.324 3.835 6.46-.959L145.254 3.67c1.077-4.794 3.051-4.854 4.307-.12l28.832 106.672c1.316 4.794 5.025 6.412 8.315 3.6a41.975 41.975 0 0 1 13.758-7.191 48.7 48.7 0 0 0 13.758-6.592 60.761 60.761 0 0 0 11.126-11.866l8.913-12.825c2.811-4.075 6.64-3.6 8.434.959l15.493 39.013c1.794 4.614 5.384 4.854 7.9.6l4.666-7.91c2.512-4.255 6.1-4.015 8.016.539l.3.779c1.914 4.555 6.819 7.91 10.887 7.431a29.256 29.256 0 0 1 14.356 2.7c3.768 1.978 8.673 7.251 10.827 11.686l8.016 16.48" transform="translate(2.052 2.99)" fill="url(#a)"/><path data-name="Path 2612" d="M.971 151.859l16.413-66.751c1.137-4.794 3.589-4.974 5.384-.36l10.767 27.627A34.032 34.032 0 0 0 44.242 125.8l.12.06a12.908 12.908 0 0 0 14.416-.6l4.546-3.716a42.792 42.792 0 0 0 10.528-13.9l13.817-32.065a50.325 50.325 0 0 1 10.169-14.323l7.716-7.072c3.649-3.356 8.614-2.577 11.066 1.738l9.631 16.78c2.453 4.315 5.324 3.835 6.46-.959l14.6-65.083c1.077-4.794 3.051-4.854 4.307-.12l28.832 106.674c1.316 4.794 5.025 6.412 8.315 3.6a41.39 41.39 0 0 1 13.758-7.191 48.7 48.7 0 0 0 13.758-6.592 60.763 60.763 0 0 0 11.126-11.866l8.911-12.829c2.811-4.075 6.64-3.6 8.434.959l15.493 39.014c1.794 4.615 5.384 4.854 7.9.6l4.666-7.911c2.512-4.255 6.1-4.015 8.016.539l.3.779c1.914 4.555 6.819 7.911 10.887 7.431a29.255 29.255 0 0 1 14.356 2.7c3.769 1.978 8.673 7.251 10.827 11.686l8.016 16.48" fill="none" stroke="#5a80fb" stroke-miterlimit="10" stroke-width="2"/><path data-name="Path 2613" d="M19.528 77.92a4.5 4.5 0 1 1-4.5 4.5 4.5 4.5 0 0 1 4.5-4.5z" fill="#5a80fb" stroke="#fff" stroke-width="2"/><path data-name="Path 2615" d="M35.43 110.656a4.5 4.5 0 1 1-4.5 4.5 4.5 4.5 0 0 1 4.5-4.5z" fill="#5a80fb" stroke="#fff" stroke-width="2"/><path data-name="Path 2616" d="M49.332 123.236a4.5 4.5 0 1 1-4.5 4.5 4.5 4.5 0 0 1 4.5-4.5z" fill="#5a80fb" stroke="#fff" stroke-width="2"/><path data-name="Path 2617" d="M66.837 113.651a4.5 4.5 0 1 1-4.5 4.5 4.5 4.5 0 0 1 4.5-4.5z" fill="#5a80fb" stroke="#fff" stroke-width="2"/><path data-name="Path 2618" d="M88.971 66.325a4.5 4.5 0 1 1-4.5 4.5 4.5 4.5 0 0 1 4.5-4.5z" fill="#5a80fb" stroke="#fff" stroke-width="2"/><path data-name="Path 2620" d="M129.65 71.118a4.5 4.5 0 1 1-4.5 4.5 4.5 4.5 0 0 1 4.5-4.5z" fill="#5a80fb" stroke="#fff" stroke-width="2"/><path data-name="Path 2622" d="M183.489 113.651a4.5 4.5 0 1 1-4.5 4.5 4.5 4.5 0 0 1 4.5-4.5z" fill="#5a80fb" stroke="#fff" stroke-width="2"/><path data-name="Path 2623" d="M196.65 106.463a4.5 4.5 0 1 1-4.5 4.5 4.5 4.5 0 0 1 4.5-4.5z" fill="#5a80fb" stroke="#fff" stroke-width="2"/><path data-name="Path 2624" d="M215.194 99.274a4.5 4.5 0 1 1-4.5 4.5 4.5 4.5 0 0 1 4.5-4.5z" fill="#5a80fb" stroke="#fff" stroke-width="2"/><path data-name="Path 2625" d="M240.319 70.519a4.5 4.5 0 1 1-4.5 4.5 4.5 4.5 0 0 1 4.5-4.5z" fill="#5a80fb" stroke="#fff" stroke-width="2"/><path data-name="Path 2626" d="M263.051 116.647a4.5 4.5 0 1 1-4.5 4.5 4.5 4.5 0 0 1 4.5-4.5z" fill="#5a80fb" stroke="#fff" stroke-width="2"/><path data-name="Path 2627" d="M276.38 103.467a4.5 4.5 0 1 1-4.5 4.5 4.5 4.5 0 0 1 4.5-4.5z" fill="#5a80fb" stroke="#fff" stroke-width="2"/><path data-name="Path 2628" d="M287.706 114.25a4.5 4.5 0 1 1-4.5 4.5 4.5 4.5 0 0 1 4.5-4.5z" fill="#5a80fb" stroke="#fff" stroke-width="2"/><path data-name="Path 2631" d="M323.471 144.883a4.5 4.5 0 1 1-4.5 4.5 4.5 4.5 0 0 1 4.5-4.5z" fill="#5a80fb" stroke="#fff" stroke-width="2"/><path data-name="Path 2632" d="M309.165 120.241a4.5 4.5 0 1 1-4.5 4.5 4.5 4.5 0 0 1 4.5-4.5z" fill="#5a80fb" stroke="#fff" stroke-width="2"/><g data-name="Group 1296" transform="translate(206.37 36.415)"><rect data-name="Rectangle 52" width="72.836" height="25.339" rx="5" fill="#5a80fb"/><path data-name="Path 25" d="M23.209 19.772L34.257 30.82l11.052-11.048z" fill="#5a80fb"/><path data-name="Path 5195" d="M21.664 11.369h-.737l.165-1.781h3.311v-1.2h-4.521l-.4 4.191h1.863c1.6 0 2.068.462 2.068 1.2s-.6 1.177-1.628 1.177a3.646 3.646 0 0 1-2.266-.76l-.605 1.111a4.813 4.813 0 0 0 2.893.891c2.064 0 3.047-1.122 3.047-2.475s-.913-2.354-3.19-2.354zm6.607-3.091a2.567 2.567 0 0 0-2.816 2.5 2.406 2.406 0 0 0 2.655 2.362 2.629 2.629 0 0 0 2.057-.8v.011c0 1.749-.913 2.651-2.365 2.651a2.618 2.618 0 0 1-1.463-.374l-.528 1.075a3.86 3.86 0 0 0 2.024.495c2.233 0 3.773-1.452 3.773-4.092 0-2.475-1.237-3.828-3.337-3.828zm.11 3.74c-.935 0-1.54-.506-1.54-1.309A1.337 1.337 0 0 1 28.352 9.4c1.023 0 1.6.572 1.6 1.3a1.4 1.4 0 0 1-1.567 1.318zm6.79-3.74a2.567 2.567 0 0 0-2.816 2.5 2.406 2.406 0 0 0 2.651 2.365 2.629 2.629 0 0 0 2.057-.8v.011c0 1.749-.913 2.651-2.365 2.651a2.618 2.618 0 0 1-1.463-.374l-.527 1.072a3.86 3.86 0 0 0 2.024.495c2.233 0 3.773-1.452 3.773-4.092 0-2.475-1.234-3.828-3.334-3.828zm.11 3.74c-.935 0-1.54-.506-1.54-1.309A1.337 1.337 0 0 1 35.248 9.4c1.023 0 1.595.572 1.595 1.3a1.4 1.4 0 0 1-1.561 1.318zm4.928 2.321a.867.867 0 0 0-.891.913.846.846 0 0 0 .517.814l-.44 1.683h.891l.562-1.551a2.48 2.48 0 0 0 .253-.946.867.867 0 0 0-.891-.913zm6.919-2.3a1.757 1.757 0 0 0 .979-1.617c0-1.32-1.166-2.145-2.882-2.145s-2.86.825-2.86 2.145a1.757 1.757 0 0 0 .957 1.617 1.932 1.932 0 0 0-1.231 1.838c0 1.43 1.221 2.321 3.135 2.321s3.157-.891 3.157-2.321a1.937 1.937 0 0 0-1.254-1.837zm-1.9-2.64c.88 0 1.474.4 1.474 1.089 0 .66-.561 1.078-1.474 1.078s-1.457-.417-1.457-1.078c0-.692.575-1.088 1.455-1.088zm0 5.676c-1.056 0-1.694-.462-1.694-1.243 0-.759.638-1.232 1.694-1.232s1.716.473 1.716 1.232c-.002.782-.662 1.244-1.718 1.244zm9.073-3.035a1.757 1.757 0 0 0 .979-1.617c0-1.32-1.166-2.145-2.882-2.145s-2.86.825-2.86 2.145a1.757 1.757 0 0 0 .957 1.617 1.932 1.932 0 0 0-1.232 1.837c0 1.43 1.221 2.321 3.135 2.321s3.157-.891 3.157-2.321a1.937 1.937 0 0 0-1.254-1.837zm-1.9-2.64c.88 0 1.474.4 1.474 1.089 0 .66-.561 1.078-1.474 1.078s-1.455-.418-1.455-1.079c0-.692.572-1.088 1.452-1.088zm0 5.676c-1.056 0-1.694-.462-1.694-1.243 0-.759.638-1.232 1.694-1.232s1.716.473 1.716 1.232c-.003.781-.663 1.243-1.719 1.243z" fill="#fff"/></g><path data-name="Line 107" fill="none" stroke="#d8d8d8" stroke-width="2" d="M326.704 170H1.016"/><path data-name="Line 106" fill="none" stroke="#d8d8d8" stroke-width="2" d="M1.016 19.461V170"/><path data-name="Path 5134" d="M111.05 47.23a4.5 4.5 0 1 1-4.5 4.5 4.5 4.5 0 0 1 4.5-4.5z" fill="#5a80fb" stroke="#fff" stroke-width="2"/><path data-name="Path 5135" d="M149.186 1a4.5 4.5 0 1 1-4.5 4.5 4.5 4.5 0 0 1 4.5-4.5z" fill="#5a80fb" stroke="#fff" stroke-width="2"/></g></svg>