<svg xmlns="http://www.w3.org/2000/svg" width="225.001" height="225.002"><g fill="none" stroke-miterlimit="10" stroke-width="16"><path data-name="Path 5156" d="M209.721 74.266a105.652 105.652 0 0 1 6.585 26.133 103.926 103.926 0 0 1 .415 19.652 104.479 104.479 0 0 1-11.718 41.118 103.375 103.375 0 0 1-7.155 11.666 104.875 104.875 0 0 1-10.215 12.341 101.9 101.9 0 0 1-16.8 14.052 103.311 103.311 0 0 1-20.015 10.472 104.506 104.506 0 1 1 7.42-191.122 106.514 106.514 0 0 1 17.526 10.733 102.741 102.741 0 0 1 15.192 14.1 106.065 106.065 0 0 1 9.955 13.326 113.03 113.03 0 0 1 8.81 17.529z" stroke="#edf1fe"/><path data-name="Path 5157" d="M112.5 8a103.987 103.987 0 0 1 45.681 10.578 106.508 106.508 0 0 1 17.526 10.733 102.738 102.738 0 0 1 15.192 14.1 106.066 106.066 0 0 1 9.955 13.326 104.032 104.032 0 0 1 8.815 17.474 105.652 105.652 0 0 1 6.585 26.133 103.927 103.927 0 0 1 .415 19.652 104.476 104.476 0 0 1-11.718 41.118 103.377 103.377 0 0 1-7.155 11.667" stroke="#d5defd"/><path data-name="Path 5158" d="M112.5 8a103.987 103.987 0 0 1 45.681 10.578 106.508 106.508 0 0 1 17.526 10.733 102.738 102.738 0 0 1 15.192 14.1 106.066 106.066 0 0 1 9.955 13.326 104.032 104.032 0 0 1 8.815 17.474" stroke="#beceff"/><path data-name="Path 5159" d="M112.5 8a103.987 103.987 0 0 1 45.681 10.578" stroke="#5a80fb"/></g></svg>